<?xml version="1.0" standalone="no"?>
<!DOCTYPE svg PUBLIC "-//W3C//DTD SVG 20010904//EN"
 "http://www.w3.org/TR/2001/REC-SVG-20010904/DTD/svg10.dtd">
<svg version="1.0" xmlns="http://www.w3.org/2000/svg"
 width="700.000000pt" height="700.000000pt" viewBox="0 0 700.000000 700.000000"
 preserveAspectRatio="xMidYMid meet">
<metadata>
Created by potrace 1.14, written by Peter Selinger 2001-2017
</metadata>
<g transform="translate(0.000000,700.000000) scale(0.100000,-0.100000)"
fill="#000000" stroke="none">
<path d="M4652 6438 c-19 -19 -15 -38 22 -113 60 -125 196 -265 341 -352 210
-127 310 -214 360 -313 15 -30 52 -117 82 -194 114 -294 186 -385 334 -421 89
-22 127 -57 185 -170 66 -128 110 -250 169 -472 108 -401 125 -528 86 -651
-20 -67 -40 -98 -118 -185 -66 -74 -109 -161 -125 -252 -10 -62 -9 -91 10
-222 42 -293 25 -418 -71 -516 -91 -93 -188 -167 -219 -167 -61 0 -79 74 -87
360 -6 215 -8 227 -31 268 -43 75 -98 90 -268 72 -137 -14 -183 -8 -228 33
-58 50 -86 124 -114 293 -12 78 -1 173 27 227 23 45 95 119 130 133 50 21 83
17 159 -21 114 -58 208 -40 279 52 152 199 85 551 -126 668 -51 28 -61 30
-169 31 -162 1 -156 0 -203 44 -66 60 -94 122 -127 276 -32 149 -70 243 -126
311 -57 69 -98 84 -246 93 -116 6 -131 9 -169 35 -94 62 -122 115 -144 271
-19 136 -22 146 -55 221 -30 66 -97 146 -141 169 -16 8 -48 14 -73 14 -37 0
-52 -6 -82 -32 -71 -62 -113 -205 -95 -319 13 -80 59 -176 106 -222 44 -42 93
-60 230 -83 111 -18 137 -29 177 -71 49 -51 78 -136 108 -317 36 -210 73 -286
162 -330 46 -23 64 -26 159 -26 153 0 202 -13 254 -65 116 -115 138 -392 47
-575 -20 -41 -50 -83 -65 -95 -43 -30 -130 -25 -239 14 -139 50 -233 38 -306
-40 -51 -55 -79 -117 -116 -261 -49 -191 -91 -265 -180 -310 -71 -36 -215 -12
-326 54 -76 46 -113 108 -118 198 -6 108 15 164 151 384 79 128 104 255 73
376 -56 219 -249 339 -408 253 -131 -70 -227 -210 -236 -340 -8 -132 36 -219
191 -373 81 -81 97 -103 111 -149 32 -109 12 -214 -67 -353 -106 -185 -219
-288 -317 -288 -89 0 -157 56 -270 221 -117 170 -187 223 -300 224 -80 0 -115
-17 -250 -120 -108 -83 -188 -125 -241 -125 -98 0 -214 109 -294 277 -77 159
-89 205 -90 323 0 103 1 107 38 176 21 39 72 108 113 155 160 177 202 254 211
389 10 136 -40 264 -117 302 -24 12 -58 18 -107 18 -61 0 -76 3 -101 25 -16
13 -35 38 -42 55 -18 43 -8 163 19 232 27 70 101 154 168 190 124 67 178 42
242 -115 26 -61 67 -81 158 -75 82 5 130 39 201 138 29 41 69 98 89 126 40 56
111 110 159 120 51 10 96 -17 157 -94 66 -82 118 -109 188 -98 173 28 273 166
274 376 0 73 -4 94 -29 148 -39 84 -73 112 -137 112 -97 0 -158 -45 -265 -196
-75 -106 -131 -154 -181 -154 -25 0 -46 12 -95 56 -107 96 -136 114 -185 114
-62 0 -86 -15 -188 -120 -135 -138 -242 -210 -317 -213 -55 -2 -83 31 -93 110
-9 80 -24 99 -82 108 -74 11 -83 19 -82 73 1 93 50 173 168 272 172 145 237
229 229 297 -3 26 -6 28 -56 31 -43 2 -66 -3 -115 -26 -163 -78 -378 -280
-408 -384 -11 -41 7 -73 57 -102 34 -19 39 -26 36 -55 -3 -38 -63 -161 -128
-262 -26 -39 -69 -119 -97 -178 -44 -91 -51 -115 -51 -168 -1 -87 26 -114 144
-144 46 -11 92 -25 102 -30 32 -17 22 -112 -44 -384 -39 -162 -40 -173 -29
-235 7 -36 29 -108 50 -160 100 -247 83 -358 -86 -580 -102 -135 -128 -181
-149 -260 -29 -113 -9 -185 105 -376 107 -178 134 -251 133 -349 -1 -98 -28
-177 -77 -228 -74 -77 -161 -72 -245 13 -57 56 -95 129 -140 265 -18 55 -41
117 -52 138 -46 92 -145 165 -205 151 -15 -4 -49 -19 -74 -35 -25 -16 -58 -29
-74 -29 -38 0 -86 53 -129 143 -55 115 -70 179 -71 297 0 111 10 150 52 207
35 49 56 56 99 38 20 -8 51 -15 68 -15 74 0 163 126 207 290 32 121 32 301 1
382 -25 63 -88 128 -124 128 -13 0 -49 -16 -80 -36 -77 -47 -104 -44 -136 16
-22 41 -23 54 -19 135 4 67 13 113 38 180 27 76 32 105 33 185 1 75 -3 101
-16 122 -17 26 -19 27 -60 14 -24 -8 -52 -17 -62 -21 -18 -8 -19 -5 -12 34 6
41 24 87 150 391 30 74 56 145 56 158 0 20 -3 21 -20 12 -49 -26 -224 -336
-279 -493 -17 -49 -31 -92 -31 -95 0 -4 10 -12 23 -17 32 -15 26 -62 -34 -238
-27 -82 -53 -177 -56 -211 -9 -95 26 -226 64 -240 8 -4 39 6 69 21 46 23 55
25 70 12 66 -55 79 -363 24 -567 -21 -77 -62 -166 -81 -178 -7 -4 -32 4 -56
17 -44 24 -44 24 -59 4 -8 -11 -26 -56 -39 -101 -34 -109 -33 -206 5 -419 39
-225 40 -253 12 -275 l-22 -18 36 -104 c84 -242 237 -553 251 -511 3 9 -45
146 -127 357 -44 115 -73 232 -68 275 3 27 13 29 70 16 23 -6 30 -2 53 34 32
52 49 59 90 36 52 -28 92 -94 164 -273 37 -92 84 -193 105 -225 85 -127 173
-151 269 -71 37 31 71 30 135 -2 60 -30 94 -73 173 -218 60 -110 93 -143 269
-266 114 -81 192 -155 220 -211 53 -102 66 -264 27 -339 -39 -77 -95 -71 -220
23 -117 87 -195 120 -236 97 -30 -15 -27 -59 9 -130 16 -33 30 -62 30 -65 0
-3 -11 -5 -25 -5 -15 0 -57 25 -108 64 -87 66 -118 86 -136 86 -27 0 -5 -33
76 -113 148 -145 296 -256 367 -273 26 -6 27 -5 18 13 -6 11 -27 32 -47 47
-37 29 -71 73 -62 82 9 9 78 -25 143 -72 155 -110 209 -99 178 37 -12 52 -13
74 -5 82 16 16 123 -7 181 -38 25 -13 94 -50 155 -81 139 -72 167 -94 217
-168 81 -121 167 -231 198 -254 65 -49 183 -68 240 -39 49 25 35 92 -32 153
-42 38 -91 62 -218 110 -81 30 -157 91 -184 147 -8 18 -20 80 -25 137 -9 82
-18 118 -41 167 -38 76 -66 100 -223 189 -146 83 -225 155 -250 228 -20 58
-22 144 -6 268 14 103 1 189 -36 253 -13 23 -61 77 -108 121 -97 91 -131 150
-149 253 -24 138 16 246 131 362 85 85 142 112 236 111 101 -1 175 -61 251
-204 51 -96 113 -167 173 -197 20 -10 84 -37 143 -60 222 -87 282 -198 227
-421 -31 -121 -30 -221 1 -285 33 -68 85 -116 166 -156 63 -31 76 -34 164 -34
86 0 100 3 149 30 115 63 171 173 158 310 -11 113 -59 197 -151 259 -39 28
-81 44 -170 66 -64 16 -137 41 -162 55 -88 52 -140 161 -132 281 6 100 52 148
160 166 55 10 76 9 134 -5 89 -22 124 -52 201 -168 75 -113 126 -161 201 -189
120 -45 252 -10 358 96 69 69 99 129 125 251 35 159 79 224 189 279 85 42 145
39 250 -14 102 -50 144 -53 248 -17 97 34 136 32 202 -7 41 -25 60 -45 80 -83
25 -49 25 -53 25 -275 0 -221 0 -226 25 -270 49 -87 110 -106 234 -74 36 10
85 14 120 12 54 -4 62 -8 97 -45 53 -58 59 -105 24 -214 -25 -81 -26 -90 -23
-299 l3 -215 -26 -50 c-40 -74 -99 -136 -212 -222 -121 -90 -205 -133 -264
-133 -45 0 -44 -2 -63 85 -38 174 -123 188 -341 58 -139 -84 -189 -105 -254
-110 -76 -6 -104 13 -147 104 -56 119 -127 167 -244 167 -173 -1 -335 -144
-338 -297 -1 -70 28 -123 89 -167 27 -19 67 -52 88 -73 66 -63 50 -91 -140
-254 -71 -61 -92 -106 -73 -153 36 -88 274 -54 379 54 40 42 39 56 -19 144
-67 105 -56 158 54 259 84 77 180 126 247 127 46 1 53 -2 87 -39 20 -23 51
-62 69 -87 40 -59 71 -79 122 -80 53 -1 82 12 212 89 110 65 188 93 241 85
l31 -5 -7 -76 c-10 -113 -11 -114 -79 -149 -34 -18 -179 -99 -322 -180 -313
-177 -339 -206 -121 -132 164 56 234 89 415 197 277 165 524 381 595 521 13
26 34 94 46 152 34 162 51 191 245 405 167 185 197 263 199 510 l1 160 38 79
c93 196 255 366 348 366 82 0 98 -74 54 -260 -34 -145 -33 -181 6 -214 17 -14
39 -26 49 -26 50 0 135 126 158 235 6 28 12 157 13 288 2 211 0 240 -15 255
-22 22 -42 10 -84 -54 -60 -90 -82 -114 -106 -114 -31 0 -52 26 -76 94 -26 78
-69 355 -76 502 -9 172 4 248 67 400 52 127 53 131 53 234 1 94 -2 112 -28
175 -33 81 -91 146 -206 235 -178 136 -294 311 -316 478 -8 65 7 106 47 122
45 19 72 -3 187 -160 35 -47 61 -72 102 -93 l55 -28 18 22 c29 36 31 68 8 146
-11 40 -26 104 -31 143 -12 82 -29 114 -70 129 -17 6 -43 16 -59 22 -15 6 -60
45 -99 88 -138 152 -222 143 -177 -19 10 -36 20 -82 23 -102 4 -38 4 -38 -31
-38 -134 0 -533 325 -704 574 -115 168 -267 309 -410 380 -56 29 -83 32 -101
14z"/>
</g>
</svg>
